<svg aria-hidden="true" style="position: absolute; width: 0; height: 0; overflow: hidden;" version="1.1" xmlns="http://www.w3.org/2000/svg" xmlns:xlink="http://www.w3.org/1999/xlink">
<defs>
<symbol id="icon-3" viewBox="0 0 32 32">
<path fill="#eff9ff" style="fill: var(--color1, #eff9ff)" d="M16.333 32c8.652 0 15.667-7.014 15.667-15.667s-7.014-15.667-15.667-15.667c-8.652 0-15.667 7.014-15.667 15.667s7.014 15.667 15.667 15.667z"></path>
<path fill="none" stroke="#0962e8" style="stroke: var(--color2, #0962e8)" stroke-linejoin="round" stroke-linecap="round" stroke-miterlimit="4" stroke-width="0.8" d="M7.142 11.714c2.525 0 4.571-2.047 4.571-4.571s-2.047-4.571-4.571-4.571c-2.525 0-4.571 2.047-4.571 4.571s2.047 4.571 4.571 4.571z"></path>
<path fill="none" stroke="#0962e8" style="stroke: var(--color2, #0962e8)" stroke-linejoin="round" stroke-linecap="round" stroke-miterlimit="4" stroke-width="0.8" d="M20.857 25.429c2.525 0 4.571-2.047 4.571-4.571s-2.047-4.571-4.571-4.571c-2.525 0-4.571 2.047-4.571 4.571s2.047 4.571 4.571 4.571z"></path>
<path fill="none" stroke="#0962e8" style="stroke: var(--color2, #0962e8)" stroke-linejoin="round" stroke-linecap="round" stroke-miterlimit="4" stroke-width="0.8" d="M14 27.333c-7.364 0-13.333-5.97-13.333-13.333l4.444 2.222"></path>
<path fill="none" stroke="#0962e8" style="stroke: var(--color2, #0962e8)" stroke-linejoin="round" stroke-linecap="round" stroke-miterlimit="4" stroke-width="0.8" d="M14 0.667c7.364 0 13.333 5.97 13.333 13.333l-4.444-2.222"></path>
</symbol>
<symbol id="icon-4" viewBox="0 0 31 32">
<path fill="#eff9ff" style="fill: var(--color1, #eff9ff)" d="M15.935 31.87c8.441 0 15.285-6.843 15.285-15.285s-6.843-15.285-15.285-15.285c-8.441 0-15.285 6.843-15.285 15.285s6.843 15.285 15.285 15.285z"></path>
<path fill="none" stroke="#0962e8" style="stroke: var(--color2, #0962e8)" stroke-linejoin="round" stroke-linecap="round" stroke-miterlimit="4" stroke-width="0.7805" d="M13.659 9.756c2.515 0 4.553-2.038 4.553-4.553s-2.038-4.553-4.553-4.553c-2.514 0-4.553 2.038-4.553 4.553s2.038 4.553 4.553 4.553z"></path>
<path fill="none" stroke="#0962e8" style="stroke: var(--color2, #0962e8)" stroke-linejoin="round" stroke-linecap="round" stroke-miterlimit="4" stroke-width="0.7805" d="M0.65 24.715c0-5.747 5.242-10.406 11.707-10.406"></path>
<path fill="none" stroke="#0962e8" style="stroke: var(--color2, #0962e8)" stroke-linejoin="round" stroke-linecap="round" stroke-miterlimit="4" stroke-width="0.7805" d="M18.764 16.26c-1.383 0-2.504 1.306-2.504 2.918 0 2.918 2.959 5.571 4.553 6.188 1.594-0.617 4.553-3.27 4.553-6.188 0-1.612-1.121-2.918-2.504-2.918-0.847 0-1.596 0.49-2.049 1.24-0.453-0.75-1.202-1.24-2.049-1.24z"></path>
</symbol>
<symbol id="icon-1" viewBox="0 0 32 32">
<path fill="#eff9ff" style="fill: var(--color1, #eff9ff)" d="M16.333 32c8.652 0 15.667-7.014 15.667-15.667s-7.014-15.667-15.667-15.667c-8.652 0-15.667 7.014-15.667 15.667s7.014 15.667 15.667 15.667z"></path>
<path fill="none" stroke="#0962e8" style="stroke: var(--color2, #0962e8)" stroke-linejoin="round" stroke-linecap="round" stroke-miterlimit="4" stroke-width="0.8" d="M7.333 7.333c3.682 0 6.667-1.492 6.667-3.333s-2.985-3.333-6.667-3.333c-3.682 0-6.667 1.492-6.667 3.333s2.985 3.333 6.667 3.333z"></path>
<path fill="none" stroke="#0962e8" style="stroke: var(--color2, #0962e8)" stroke-linejoin="round" stroke-linecap="round" stroke-miterlimit="4" stroke-width="0.8" d="M0.667 4c0 0 0 2.826 0 4.667s2.985 3.333 6.667 3.333c3.682 0 6.667-1.492 6.667-3.333 0-1.090 0-4.667 0-4.667"></path>
<path fill="none" stroke="#0962e8" style="stroke: var(--color2, #0962e8)" stroke-linejoin="round" stroke-linecap="round" stroke-miterlimit="4" stroke-width="0.8" d="M0.667 8.667c0 0 0 2.826 0 4.667s2.985 3.333 6.667 3.333c3.682 0 6.667-1.492 6.667-3.333 0-1.090 0-4.667 0-4.667"></path>
<path fill="none" stroke="#0962e8" style="stroke: var(--color2, #0962e8)" stroke-linejoin="round" stroke-linecap="round" stroke-miterlimit="4" stroke-width="0.8" d="M0.667 13.333c0 0 0 2.826 0 4.667s2.985 3.333 6.667 3.333c3.682 0 6.667-1.492 6.667-3.333 0-1.090 0-4.667 0-4.667"></path>
<path fill="none" stroke="#0962e8" style="stroke: var(--color2, #0962e8)" stroke-linejoin="round" stroke-linecap="round" stroke-miterlimit="4" stroke-width="0.8" d="M0.667 18c0 0 0 2.826 0 4.667s2.985 3.333 6.667 3.333c3.682 0 6.667-1.492 6.667-3.333 0-1.090 0-4.667 0-4.667"></path>
<path fill="none" stroke="#0962e8" style="stroke: var(--color2, #0962e8)" stroke-linejoin="round" stroke-linecap="round" stroke-miterlimit="4" stroke-width="0.8" d="M20.667 16.667c3.682 0 6.667-1.492 6.667-3.333s-2.985-3.333-6.667-3.333c-3.682 0-6.667 1.492-6.667 3.333s2.985 3.333 6.667 3.333z"></path>
<path fill="none" stroke="#0962e8" style="stroke: var(--color2, #0962e8)" stroke-linejoin="round" stroke-linecap="round" stroke-miterlimit="4" stroke-width="0.8" d="M14 13.333c0 0 0 2.826 0 4.667s2.985 3.333 6.667 3.333c3.682 0 6.667-1.492 6.667-3.333 0-1.090 0-4.667 0-4.667"></path>
<path fill="none" stroke="#0962e8" style="stroke: var(--color2, #0962e8)" stroke-linejoin="round" stroke-linecap="round" stroke-miterlimit="4" stroke-width="0.8" d="M14 18c0 0 0 2.826 0 4.667s2.985 3.333 6.667 3.333c3.682 0 6.667-1.492 6.667-3.333 0-1.090 0-4.667 0-4.667"></path>
</symbol>
<symbol id="icon-2" viewBox="0 0 34 32">
<path fill="#eff9ff" style="fill: var(--color1, #eff9ff)" d="M17.853 31.663c8.744 0 15.832-7.088 15.832-15.832s-7.088-15.832-15.832-15.832c-8.743 0-15.832 7.088-15.832 15.832s7.088 15.832 15.832 15.832z"></path>
<path fill="none" stroke="#0962e8" style="stroke: var(--color2, #0962e8)" stroke-linejoin="round" stroke-linecap="round" stroke-miterlimit="4" stroke-width="0.8421" d="M14.147 7.411c1.86 0 3.368-1.508 3.368-3.368s-1.508-3.368-3.368-3.368c-1.86 0-3.368 1.508-3.368 3.368s1.508 3.368 3.368 3.368z"></path>
<path fill="none" stroke="#0962e8" style="stroke: var(--color2, #0962e8)" stroke-linejoin="round" stroke-linecap="round" stroke-miterlimit="4" stroke-width="0.8421" d="M16.168 11.453h-4.042c-0.626 0-0.938 0-1.202 0.026-2.559 0.252-4.583 2.276-4.835 4.835-0.026 0.264-0.026 0.576-0.026 1.202h16.168c0-0.626 0-0.938-0.026-1.202-0.252-2.559-2.276-4.583-4.835-4.835-0.264-0.026-0.576-0.026-1.202-0.026z"></path>
<path fill="none" stroke="#0962e8" style="stroke: var(--color2, #0962e8)" stroke-linejoin="round" stroke-linecap="round" stroke-miterlimit="4" stroke-width="0.8421" d="M25.6 16.023c1.281 0.825 2.021 1.798 2.021 2.84 0 2.977-6.032 5.389-13.474 5.389s-13.474-2.413-13.474-5.389c0-1.042 0.74-2.016 2.021-2.84"></path>
<path fill="none" stroke="#0962e8" style="stroke: var(--color2, #0962e8)" stroke-linejoin="round" stroke-linecap="round" stroke-miterlimit="4" stroke-width="0.8421" d="M10.779 20.884l3.368 3.368-3.368 3.369"></path>
</symbol>
<symbol id="icon-Activity" viewBox="0 0 32 32">
<path fill="#0962e8" style="fill: var(--color2, #0962e8)" d="M22.428 6.109c0-1.901 1.546-3.442 3.453-3.442s3.453 1.541 3.453 3.442c0 1.901-1.546 3.442-3.453 3.442s-3.453-1.541-3.453-3.442zM27.395 6.109c0-0.834-0.678-1.51-1.515-1.51s-1.515 0.676-1.515 1.51c0 0.834 0.678 1.51 1.515 1.51s1.515-0.676 1.515-1.51zM20.704 12.72c0.328-0.422 0.937-0.499 1.359-0.172 0.385 0.297 0.483 0.826 0.252 1.236l-0.079 0.119-3.784 4.869c-0.299 0.385-0.833 0.483-1.245 0.248l-0.12-0.080-3.642-2.852-3.27 4.237c-0.297 0.384-0.826 0.485-1.239 0.255l-0.12-0.079c-0.386-0.296-0.486-0.824-0.256-1.235l0.079-0.119 3.867-5.011c0.299-0.387 0.833-0.486 1.247-0.251l0.12 0.080 3.643 2.854 3.188-4.1zM20.298 4.717c0-0.534-0.434-0.966-0.969-0.966l-9.693 0.005c-4.203 0.141-6.97 3.218-6.97 7.587v10.41l0.005 0.311c0.13 4.32 2.965 7.269 7.268 7.269l11.419-0.005c4.204-0.14 6.97-3.208 6.97-7.575v-9.066l-0.009-0.131c-0.064-0.472-0.47-0.835-0.96-0.835-0.535 0-0.969 0.432-0.969 0.966v9.066l-0.005 0.3c-0.117 3.263-2.155 5.348-5.329 5.348l-11.405-0.006c-3.13-0.124-5.046-2.29-5.046-5.642v-10.41l0.005-0.3c0.117-3.266 2.158-5.36 5.329-5.36l9.521-0.009c0.473-0.064 0.838-0.468 0.838-0.957z"></path>
</symbol>
<symbol id="icon-Filter" viewBox="0 0 32 32">
<path fill="#0962e8" style="fill: var(--color2, #0962e8)" d="M7.933 3.333c-2.908 0-5.266 2.351-5.266 5.25 0 2.897 2.358 5.248 5.266 5.248s5.266-2.351 5.266-5.248c0-2.899-2.358-5.25-5.266-5.25zM7.933 5.343c1.794 0 3.249 1.451 3.249 3.24 0 1.787-1.455 3.238-3.249 3.238s-3.249-1.451-3.249-3.238c0-1.789 1.455-3.24 3.249-3.24zM29.333 8.583c0-0.555-0.451-1.005-1.008-1.005l-10.374 0.009c-0.492 0.067-0.872 0.487-0.872 0.996 0 0.555 0.451 1.005 1.008 1.005l10.374-0.009c0.492-0.067 0.872-0.487 0.872-0.996zM18.801 23.419c0-2.898 2.358-5.248 5.266-5.248s5.266 2.35 5.266 5.248-2.358 5.248-5.266 5.248c-2.908 0-5.266-2.35-5.266-5.248zM27.317 23.419c0-1.788-1.455-3.238-3.249-3.238s-3.249 1.45-3.249 3.238c0 1.788 1.455 3.238 3.249 3.238s3.249-1.45 3.249-3.238zM14.922 23.419c0-0.555-0.451-1.005-1.008-1.005l-10.374 0.009c-0.492 0.067-0.872 0.487-0.872 0.996 0 0.555 0.451 1.005 1.008 1.005l10.374-0.009c0.492-0.067 0.872-0.487 0.872-0.996z"></path>
</symbol>
<symbol id="icon-Graph" viewBox="0 0 32 32">
<path fill="#0962e8" style="fill: var(--color2, #0962e8)" d="M17.897 2.668c-0.501-0.019-0.999 0.161-1.374 0.501-0.299 0.271-0.502 0.626-0.581 1.016l-0.029 0.22-0.007 0.195 0.592 8.699c0.074 1.109 1.050 1.953 2.186 1.889l8.861-0.578c0.519-0.037 0.994-0.272 1.328-0.653 0.266-0.303 0.426-0.681 0.458-1.078l0.003-0.269-0.013-0.154c-0.917-5.519-5.709-9.625-11.423-9.786zM17.882 4.599l0.29 0.014c4.511 0.273 8.271 3.495 9.142 7.832l0.044 0.24-8.796 0.575c-0.045 0.002-0.090-0.037-0.094-0.089l-0.586-8.572zM11.709 7.794c0.961-0.131 1.906 0.372 2.289 1.22 0.117 0.232 0.187 0.484 0.207 0.747l0.518 7.318c0.007 0.1 0.054 0.194 0.132 0.26 0.058 0.049 0.13 0.080 0.209 0.089l0.083 0.002 7.432-0.448c0.603-0.035 1.195 0.175 1.635 0.58s0.689 0.971 0.685 1.626c-0.331 4.817-3.869 8.843-8.687 9.887s-9.764-1.145-12.135-5.362c-0.634-1.087-1.061-2.276-1.259-3.48l-0.063-0.452c-0.055-0.338-0.084-0.68-0.089-1.009l0.004-0.323c0.014-5.029 3.545-9.378 8.513-10.55l0.341-0.075 0.183-0.030zM12.022 9.704l-0.112 0.013-0.305 0.069c-3.958 0.954-6.797 4.361-6.954 8.376l-0.007 0.327c-0.009 0.249-0 0.497 0.030 0.762l0.037 0.271c0.132 1.139 0.5 2.24 1.088 3.249 1.956 3.479 6.023 5.279 9.986 4.421s6.873-4.17 7.142-8.069c0-0.059-0.025-0.115-0.068-0.155-0.029-0.027-0.065-0.045-0.103-0.053l-0.058-0.005-7.42 0.447c-0.626 0.045-1.245-0.157-1.719-0.56s-0.764-0.974-0.806-1.583l-0.518-7.312c-0.001-0.012-0.004-0.024-0.027-0.071-0.034-0.075-0.107-0.122-0.187-0.126z"></path>
</symbol>
<symbol id="icon-Setting" viewBox="0 0 32 32">
<path fill="#0962e8" style="fill: var(--color2, #0962e8)" d="M16.821 2.667h-1.647c-0.927 0-1.817 0.362-2.471 1.006-0.58 0.571-0.935 1.323-1.003 2.124l-0.011 0.259c-0.013 0.842-0.693 1.499-1.528 1.499-0.189-0.002-0.386-0.045-0.567-0.127l-0.178-0.093c-1.641-0.922-3.775-0.357-4.738 1.28l-0.866 1.394c-0.921 1.565-0.466 3.53 1.019 4.543l0.207 0.13c0.509 0.289 0.801 0.783 0.801 1.318 0 0.492-0.247 0.952-0.658 1.23l-0.14 0.086c-1.54 0.872-2.146 2.795-1.372 4.396l0.113 0.213 0.85 1.438c0.442 0.781 1.199 1.37 2.094 1.619 0.793 0.221 1.64 0.16 2.391-0.171l0.237-0.116c0.4-0.226 0.812-0.281 1.2-0.179s0.717 0.351 0.916 0.691c0.11 0.181 0.174 0.369 0.197 0.563l0.011 0.197c-0.002 1.832 1.564 3.366 3.496 3.366h1.647c1.824 0 3.338-1.373 3.486-3.145l0.011-0.229c-0.001-0.443 0.159-0.823 0.445-1.103s0.675-0.437 1.079-0.435c0.186 0.005 0.39 0.051 0.579 0.134l0.181 0.092c1.531 0.866 3.537 0.421 4.571-1.035l0.133-0.203 0.879-1.435c0.473-0.796 0.602-1.732 0.363-2.61-0.212-0.779-0.698-1.458-1.37-1.919l-0.223-0.14c-0.387-0.219-0.642-0.545-0.746-0.927s-0.048-0.789 0.155-1.13c0.112-0.192 0.262-0.352 0.441-0.475l0.343-0.211c1.389-0.924 1.909-2.743 1.178-4.272l-0.076-0.149c-0.016-0.039-0.035-0.077-0.057-0.113l-0.818-1.39c-0.91-1.547-2.877-2.147-4.516-1.392l-0.219 0.111c-0.392 0.225-0.806 0.281-1.195 0.182s-0.723-0.346-0.927-0.686c-0.105-0.173-0.169-0.36-0.192-0.554l-0.011-0.197c0.029-0.837-0.328-1.734-0.987-2.399s-1.564-1.039-2.51-1.038zM15.175 4.597h1.647c0.413-0 0.809 0.163 1.096 0.453s0.443 0.682 0.432 1.086l0.018 0.336c0.060 0.514 0.213 0.961 0.457 1.362 0.466 0.778 1.232 1.346 2.128 1.574s1.848 0.097 2.645-0.363l0.138-0.069 0.148-0.058c0.651-0.214 1.419 0.057 1.787 0.684l0.78 1.327 0.017 0.037 0.094 0.178c0.315 0.662 0.052 1.498-0.631 1.89l-0.214 0.132c-0.455 0.309-0.803 0.682-1.057 1.116-0.463 0.779-0.592 1.715-0.353 2.593 0.217 0.799 0.722 1.49 1.416 1.949l0.363 0.225c0.256 0.177 0.467 0.472 0.559 0.81 0.104 0.382 0.048 0.789-0.155 1.13l-0.859 1.403-0.097 0.148c-0.398 0.559-1.182 0.766-1.843 0.482l-0.421-0.211c-0.47-0.207-0.93-0.31-1.397-0.322-0.952-0.005-1.845 0.355-2.503 1s-1.025 1.52-1.021 2.431l-0.007 0.145c-0.062 0.735-0.724 1.335-1.52 1.335h-1.647c-0.787 0-1.436-0.584-1.519-1.334l-0.027-0.471c-0.060-0.514-0.213-0.961-0.457-1.362-0.452-0.775-1.214-1.35-2.109-1.584s-1.849-0.109-2.649 0.348l-0.145 0.069c-0.289 0.126-0.658 0.153-1.005 0.056-0.391-0.109-0.722-0.366-0.919-0.714l-0.839-1.418-0.075-0.142c-0.318-0.659-0.054-1.496 0.63-1.884l0.208-0.128c0.976-0.661 1.54-1.713 1.54-2.839 0-1.143-0.581-2.204-1.538-2.839l-0.348-0.216c-0.614-0.419-0.813-1.278-0.416-1.953l0.866-1.394c0.432-0.735 1.364-0.981 2.095-0.571l0.257 0.133c0.479 0.217 0.949 0.32 1.425 0.325 1.849 0 3.36-1.391 3.498-3.163l0.018-0.407c0.027-0.306 0.181-0.633 0.433-0.881 0.285-0.28 0.671-0.437 1.074-0.437zM16.004 11.642c-2.456 0-4.448 1.951-4.448 4.358s1.991 4.358 4.448 4.358c2.456 0 4.448-1.951 4.448-4.358s-1.991-4.358-4.448-4.358zM16.004 13.573c1.368 0 2.477 1.087 2.477 2.427s-1.109 2.427-2.477 2.427c-1.368 0-2.477-1.087-2.477-2.427s1.109-2.427 2.477-2.427z"></path>
</symbol>
</defs>
</svg>